<svg width="70" height="67" viewBox="0 0 70 67" fill="none" xmlns="http://www.w3.org/2000/svg">
<rect width="70" height="66.6158" rx="6" fill="#9898F0"/>
<path d="M42.2191 38.0513L39.8058 35.638C40.1387 35.3329 40.3956 34.9789 40.5764 34.5761C40.7562 34.1745 40.846 33.7517 40.846 33.3079C40.846 32.8641 40.7562 32.4413 40.5764 32.0397C40.3956 31.6369 40.1387 31.2829 39.8058 30.9778L42.2191 28.5645C42.8571 29.2025 43.3426 29.9304 43.6755 30.7481C44.0083 31.567 44.1748 32.4202 44.1748 33.3079C44.1748 34.1956 44.0083 35.0483 43.6755 35.866C43.3426 36.6849 42.8571 37.4133 42.2191 38.0513ZM46.2968 42.129L43.9667 39.7989C44.8266 38.939 45.4924 37.9542 45.9639 36.8447C46.4355 35.7351 46.6713 34.5562 46.6713 33.3079C46.6713 32.0596 46.4355 30.8807 45.9639 29.7712C45.4924 28.6616 44.8266 27.6768 43.9667 26.8169L46.2968 24.4868C47.4896 25.6519 48.405 26.9972 49.043 28.5229C49.681 30.0485 50 31.6436 50 33.3079C50 34.9723 49.681 36.5673 49.043 38.0929C48.405 39.6186 47.4896 40.9639 46.2968 42.129ZM23.3287 51.6158C22.4133 51.6158 21.63 51.2902 20.9786 50.6388C20.3262 49.9864 20 49.2025 20 48.2871V18.3287C20 17.4133 20.3262 16.6294 20.9786 15.977C21.63 15.3257 22.4133 15 23.3287 15H39.9723C40.8877 15 41.6716 15.3257 42.324 15.977C42.9753 16.6294 43.301 17.4133 43.301 18.3287V24.9861H39.9723V23.3218H23.3287V43.294H39.9723V41.6297H43.301V48.2871C43.301 49.2025 42.9753 49.9864 42.324 50.6388C41.6716 51.2902 40.8877 51.6158 39.9723 51.6158H23.3287ZM23.3287 46.6227V48.2871H39.9723V46.6227H23.3287ZM23.3287 19.9931H39.9723V18.3287H23.3287V19.9931Z" fill="white"/>
</svg>
