<svg width="70" height="67" viewBox="0 0 70 67" fill="none" xmlns="http://www.w3.org/2000/svg">
<rect width="70" height="66.6158" rx="6" fill="#9898F0"/>
<path d="M40.5263 35.6764C41.2105 35.6764 41.7763 35.4527 42.2237 35.0053C42.6711 34.5579 42.8947 33.9921 42.8947 33.3079C42.8947 32.6237 42.6711 32.0579 42.2237 31.6106C41.7763 31.1632 41.2105 30.9395 40.5263 30.9395C39.8421 30.9395 39.2763 31.1632 38.8289 31.6106C38.3816 32.0579 38.1579 32.6237 38.1579 33.3079C38.1579 33.9921 38.3816 34.5579 38.8289 35.0053C39.2763 35.4527 39.8421 35.6764 40.5263 35.6764ZM23.1579 47.5185C22.2895 47.5185 21.5458 47.2095 20.9268 46.5916C20.3089 45.9727 20 45.229 20 44.3606V22.2553C20 21.3869 20.3089 20.6432 20.9268 20.0243C21.5458 19.4064 22.2895 19.0974 23.1579 19.0974H45.2632C46.1316 19.0974 46.8753 19.4064 47.4942 20.0243C48.1121 20.6432 48.4211 21.3869 48.4211 22.2553V26.2027H45.2632V22.2553H23.1579V44.3606H45.2632V40.4132H48.4211V44.3606C48.4211 45.229 48.1121 45.9727 47.4942 46.5916C46.8753 47.2095 46.1316 47.5185 45.2632 47.5185H23.1579ZM35.7895 41.2027C34.9211 41.2027 34.1779 40.8937 33.56 40.2758C32.9411 39.6569 32.6316 38.9132 32.6316 38.0448V28.5711C32.6316 27.7027 32.9411 26.959 33.56 26.34C34.1779 25.7221 34.9211 25.4132 35.7895 25.4132H46.8421C47.7105 25.4132 48.4542 25.7221 49.0732 26.34C49.6911 26.959 50 27.7027 50 28.5711V38.0448C50 38.9132 49.6911 39.6569 49.0732 40.2758C48.4542 40.8937 47.7105 41.2027 46.8421 41.2027H35.7895ZM46.8421 38.0448V28.5711H35.7895V38.0448H46.8421Z" fill="white"/>
</svg>
