<svg width="70" height="67" viewBox="0 0 70 67" fill="none" xmlns="http://www.w3.org/2000/svg">
<rect width="70" height="66.6158" rx="6" fill="#9898F0"/>
<path d="M23.3333 49.1413L50 22.3913V49.1413H23.3333ZM43.3333 45.8079H46.6667V30.4746L43.3333 33.8079V45.8079ZM26.4167 28.8079L24.25 26.6413C25.3056 25.5857 26.4722 24.8079 27.75 24.3079C29.0278 23.8079 30.3611 23.5579 31.75 23.5579C33.1389 23.5579 34.4722 23.8079 35.75 24.3079C37.0278 24.8079 38.1944 25.5857 39.25 26.6413L37.0833 28.8079C36.3333 28.0579 35.5 27.4952 34.5833 27.1196C33.6667 26.7452 32.7222 26.5579 31.75 26.5579C30.7778 26.5579 29.8333 26.7452 28.9167 27.1196C28 27.4952 27.1667 28.0579 26.4167 28.8079ZM22.1667 24.4746L20 22.3913C21.6389 20.7524 23.4722 19.5229 25.5 18.7029C27.5278 17.8841 29.6111 17.4746 31.75 17.4746C33.8889 17.4746 35.9861 17.8841 38.0417 18.7029C40.0972 19.5229 41.9444 20.7524 43.5833 22.3913L41.4167 24.4746C40.0833 23.1413 38.5761 22.1552 36.895 21.5163C35.215 20.8774 33.5 20.5579 31.75 20.5579C30 20.5579 28.2983 20.8774 26.645 21.5163C24.9928 22.1552 23.5 23.1413 22.1667 24.4746ZM31.75 34.1413L28.5417 30.9329C28.9861 30.4885 29.4861 30.1479 30.0417 29.9113C30.5972 29.6757 31.1667 29.5579 31.75 29.5579C32.3333 29.5579 32.8956 29.6691 33.4367 29.8913C33.9789 30.1135 34.4861 30.4607 34.9583 30.9329L31.75 34.1413Z" fill="white"/>
</svg>
