<svg width="70" height="67" viewBox="0 0 70 67" fill="none" xmlns="http://www.w3.org/2000/svg">
<rect width="70" height="66.6158" rx="6" fill="#9898F0"/>
<path d="M23 34.8079V37.8079H47V34.8079H23ZM23 18.3079H47C47.825 18.3079 48.5315 18.6014 49.1195 19.1884C49.7065 19.7764 50 20.4829 50 21.3079V37.8079C50 38.6329 49.7065 39.3394 49.1195 39.9274C48.5315 40.5144 47.825 40.8079 47 40.8079H41V48.3079L35 45.3079L29 48.3079V40.8079H23C22.175 40.8079 21.469 40.5144 20.882 39.9274C20.294 39.3394 20 38.6329 20 37.8079V21.3079C20 20.4829 20.294 19.7764 20.882 19.1884C21.469 18.6014 22.175 18.3079 23 18.3079ZM23 30.3079H47V21.3079H23V30.3079Z" fill="white"/>
</svg>
