<svg width="11" height="15" viewBox="0 0 11 15" fill="none" xmlns="http://www.w3.org/2000/svg">
<path fill-rule="evenodd" clip-rule="evenodd" d="M5.5 0.5C4.57174 0.5 3.6815 0.868749 3.02513 1.52513C2.36875 2.1815 2 3.07174 2 4V6C1.46957 6 0.960859 6.21071 0.585787 6.58579C0.210714 6.96086 0 7.46957 0 8V12.5C0 13.0304 0.210714 13.5391 0.585787 13.9142C0.960859 14.2893 1.46957 14.5 2 14.5H9C9.53043 14.5 10.0391 14.2893 10.4142 13.9142C10.7893 13.5391 11 13.0304 11 12.5V8C11 7.46957 10.7893 6.96086 10.4142 6.58579C10.0391 6.21071 9.53043 6 9 6V4C9 2.06667 7.43333 0.5 5.5 0.5ZM8 6V4C8 3.33696 7.73661 2.70107 7.26777 2.23223C6.79893 1.76339 6.16304 1.5 5.5 1.5C4.83696 1.5 4.20107 1.76339 3.73223 2.23223C3.26339 2.70107 3 3.33696 3 4V6H8Z" fill="#ADADF3"/>
</svg>
