<svg width="70" height="67" viewBox="0 0 70 67" fill="none" xmlns="http://www.w3.org/2000/svg">
<rect width="70" height="66.6158" rx="6" fill="#9898F0"/>
<path d="M33.5 42.3079L39.5 36.3079L33.5 30.3079L31.4 32.4079L35.3 36.3079L31.4 40.2079L33.5 42.3079ZM23 47.5579C22.175 47.5579 21.469 47.2644 20.882 46.6774C20.294 46.0894 20 45.3829 20 44.5579V28.0579C20 27.2329 20.294 26.5269 20.882 25.9399C21.469 25.3519 22.175 25.0579 23 25.0579H29V22.0579C29 21.2329 29.294 20.5264 29.882 19.9384C30.469 19.3514 31.175 19.0579 32 19.0579H38C38.825 19.0579 39.5315 19.3514 40.1195 19.9384C40.7065 20.5264 41 21.2329 41 22.0579V25.0579H47C47.825 25.0579 48.5315 25.3519 49.1195 25.9399C49.7065 26.5269 50 27.2329 50 28.0579V44.5579C50 45.3829 49.7065 46.0894 49.1195 46.6774C48.5315 47.2644 47.825 47.5579 47 47.5579H23ZM23 44.5579H47V28.0579H23V44.5579ZM32 25.0579H38V22.0579H32V25.0579Z" fill="white"/>
</svg>
