<svg width="70" height="67" viewBox="0 0 70 67" fill="none" xmlns="http://www.w3.org/2000/svg">
<rect width="70" height="66.6158" rx="6" fill="#9898F0"/>
<path d="M24.5 39.3079H27.5C27.5 38.4829 27.206 37.7764 26.618 37.1884C26.031 36.6014 25.325 36.3079 24.5 36.3079V39.3079ZM29.825 39.3079H32C32 37.2329 31.2685 35.4639 29.8055 34.0009C28.3435 32.5389 26.575 31.8079 24.5 31.8079V33.9829C25.975 33.9829 27.2315 34.5019 28.2695 35.5399C29.3065 36.5769 29.825 37.8329 29.825 39.3079ZM34.325 39.3079H36.5C36.5 37.6579 36.1875 36.1014 35.5625 34.6384C34.9375 33.1764 34.0815 31.9014 32.9945 30.8134C31.9065 29.7264 30.6315 28.8704 29.1695 28.2454C27.7065 27.6204 26.15 27.3079 24.5 27.3079V29.4829C27.225 29.4829 29.544 30.4389 31.457 32.3509C33.369 34.2639 34.325 36.5829 34.325 39.3079ZM29 46.8079V43.8079H23C22.175 43.8079 21.469 43.5144 20.882 42.9274C20.294 42.3394 20 41.6329 20 40.8079V22.8079C20 21.9829 20.294 21.2764 20.882 20.6884C21.469 20.1014 22.175 19.8079 23 19.8079H47C47.825 19.8079 48.5315 20.1014 49.1195 20.6884C49.7065 21.2764 50 21.9829 50 22.8079V40.8079C50 41.6329 49.7065 42.3394 49.1195 42.9274C48.5315 43.5144 47.825 43.8079 47 43.8079H41V46.8079H29ZM23 40.8079H47V22.8079H23V40.8079Z" fill="white"/>
</svg>
