<svg width="70" height="67" viewBox="0 0 70 67" fill="none" xmlns="http://www.w3.org/2000/svg">
<rect width="70" height="66.6158" rx="6" fill="#9898F0"/>
<path d="M45 38.3079V34.9746H48.3333C48.8056 34.9746 49.2011 35.1341 49.52 35.4529C49.84 35.7729 50 36.1691 50 36.6413C50 37.1135 49.84 37.5091 49.52 37.8279C49.2011 38.1479 48.8056 38.3079 48.3333 38.3079H45ZM45 44.9746V41.6413H48.3333C48.8056 41.6413 49.2011 41.8013 49.52 42.1213C49.84 42.4402 50 42.8357 50 43.3079C50 43.7802 49.84 44.1757 49.52 44.4946C49.2011 44.8146 48.8056 44.9746 48.3333 44.9746H45ZM38.3333 46.6413C37.4167 46.6413 36.6322 46.3152 35.98 45.6629C35.3267 45.0096 35 44.2246 35 43.3079H31.6667V36.6413H35C35 35.7246 35.3267 34.9396 35.98 34.2863C36.6322 33.6341 37.4167 33.3079 38.3333 33.3079H43.3333V46.6413H38.3333ZM26.6667 41.6413C24.8333 41.6413 23.2639 40.9885 21.9583 39.6829C20.6528 38.3774 20 36.8079 20 34.9746C20 33.1413 20.6528 31.5718 21.9583 30.2663C23.2639 28.9607 24.8333 28.3079 26.6667 28.3079H29.1667C29.8611 28.3079 30.4511 28.0646 30.9367 27.5779C31.4233 27.0924 31.6667 26.5024 31.6667 25.8079C31.6667 25.1135 31.4233 24.5235 30.9367 24.0379C30.4511 23.5513 29.8611 23.3079 29.1667 23.3079H23.3333C22.8611 23.3079 22.465 23.1485 22.145 22.8296C21.8261 22.5096 21.6667 22.1135 21.6667 21.6413C21.6667 21.1691 21.8261 20.7729 22.145 20.4529C22.465 20.1341 22.8611 19.9746 23.3333 19.9746H29.1667C30.7778 19.9746 32.1528 20.5441 33.2917 21.6829C34.4306 22.8218 35 24.1968 35 25.8079C35 27.4191 34.4306 28.7941 33.2917 29.9329C32.1528 31.0718 30.7778 31.6413 29.1667 31.6413H26.6667C25.75 31.6413 24.9656 31.9674 24.3133 32.6196C23.66 33.2729 23.3333 34.0579 23.3333 34.9746C23.3333 35.8913 23.66 36.6757 24.3133 37.3279C24.9656 37.9813 25.75 38.3079 26.6667 38.3079H30V41.6413H26.6667Z" fill="white"/>
</svg>
